<?xml version="1.0" encoding="UTF-8"?>
<svg version="1.1" xmlns="http://www.w3.org/2000/svg" width="360" height="268">
<path d="M0 0 C12.38976629 -0.11908996 24.71100694 0.14184656 37.08374023 0.79956055 C39.72417429 0.9394429 42.36494075 1.07078911 45.00585938 1.20117188 C46.71617108 1.28856984 48.42645861 1.37644256 50.13671875 1.46484375 C50.9107756 1.50343002 51.68483246 1.5420163 52.48234558 1.58177185 C57.3606241 1.8456306 62.15836833 2.34450173 67 3 C65.42806177 17.17026473 63.0601573 31.19559467 60.6875 45.25 C60.38545151 47.0431665 60.38545151 47.0431665 60.07730103 48.87255859 C59.07826044 54.80166784 58.07582762 60.73018872 57.0703125 66.65820312 C56.2940567 71.24247408 55.53216785 75.82876195 54.7853241 80.41790771 C54.26320586 83.61369733 53.72423492 86.80663784 53.1875 90 C53.01758545 91.07540039 52.8476709 92.15080078 52.67260742 93.25878906 C51.38442297 100.73487067 49.15575813 105.24416177 43.30688477 110.21899414 C39.26050545 113.72620919 35.47600591 117.4262052 31.7265625 121.24609375 C30.39465814 122.5906205 29.06262328 123.93501799 27.73046875 125.27929688 C25.66136069 127.37339655 23.59390932 129.46908677 21.52880859 131.56713867 C19.51569682 133.61026514 17.49656228 135.64728047 15.4765625 137.68359375 C14.85576813 138.31784775 14.23497375 138.95210175 13.59536743 139.60557556 C12.1010939 141.10863494 10.55510291 142.55996673 9 144 C8.34 144 7.68 144 7 144 C7 144.66 7 145.32 7 146 C5.3203125 147.62109375 5.3203125 147.62109375 3.125 149.4375 C0.53806278 151.58400884 -1.11184374 153.16776562 -3 156 C-6.25042891 154.60493574 -8.07371792 153.03216606 -10.3125 150.3125 C-12.61469986 147.58814836 -14.9492996 144.99338129 -17.5 142.5 C-19.85835987 140.18681279 -22.07426628 137.81022072 -24.2265625 135.3046875 C-27.99689624 130.96810586 -31.9197286 126.79245895 -35.875 122.625 C-37.27770619 121.1331532 -38.68005178 119.64096726 -40.08203125 118.1484375 C-42.39136944 115.69410598 -44.71570057 113.25860331 -47.07421875 110.8515625 C-47.89535156 109.99304688 -48.71648437 109.13453125 -49.5625 108.25 C-50.26503906 107.53328125 -50.96757813 106.8165625 -51.69140625 106.078125 C-53 104 -53 104 -52.72558594 101.66674805 C-51.98559484 98.94705669 -51.01404411 96.74344644 -49.69921875 94.25390625 C-49.22258789 93.34511719 -48.74595703 92.43632812 -48.25488281 91.5 C-47.73764648 90.530625 -47.22041016 89.56125 -46.6875 88.5625 C-45.88650879 87.04462891 -45.88650879 87.04462891 -45.06933594 85.49609375 C-40.3746595 76.62928834 -35.57176561 67.82158907 -30.75 59.0234375 C-25.36633791 49.19899371 -20.12403658 39.32640687 -15.15283203 29.28662109 C-11.24947228 21.43208974 -7.13195542 13.69009002 -3.01806641 5.94433594 C-1.98684539 3.97487691 -0.98795711 1.99146386 0 0 Z " fill="#29B2FE" transform="translate(160,41)"/>
<path d="M0 0 C18.37940625 0.60093063 36.73873587 1.39071455 55.1015625 2.375 C57.57106784 2.50584004 60.04058096 2.63653343 62.51010132 2.76708984 C67.62075123 3.03782215 72.7313066 3.31025577 77.84179688 3.58398438 C84.37079719 3.93355603 90.9000192 4.27877981 97.42931557 4.62277222 C102.50128217 4.89045232 107.57312768 5.16037227 112.64493942 5.43096924 C115.05371872 5.55922431 117.46253431 5.68679975 119.87138748 5.81365967 C123.22639594 5.99068842 126.58122949 6.17073659 129.93603516 6.3515625 C130.91272659 6.40250061 131.88941803 6.45343872 132.89570618 6.50592041 C138.95177545 6.83631686 144.97059918 7.34308587 151 8 C149.61720137 12.54846437 147.7848744 16.55367863 145.54296875 20.7421875 C145.20369354 21.37893906 144.86441833 22.01569061 144.51486206 22.67173767 C143.41025753 24.74194233 142.2989921 26.80848639 141.1875 28.875 C140.41623615 30.31711476 139.64532484 31.75941812 138.87475586 33.2019043 C133.77764246 42.73316837 128.63695091 52.2409546 123.47241211 61.73583984 C120.17875168 67.7970069 116.94417231 73.88588676 113.75 80 C109.34284199 88.43489774 104.71896228 96.73611678 100 105 C96.32310652 103.49280493 94.3236862 101.36529009 91.75 98.375 C88.14317653 94.24778907 84.40395735 90.37062609 80.43359375 86.59375 C79 85 79 85 79 83 C78.34 83 77.68 83 77 83 C75.58984375 81.56640625 75.58984375 81.56640625 73.9375 79.5625 C70.42929345 75.41038212 66.64549595 71.64192767 62.72265625 67.8828125 C61 66 61 66 61 64 C60.34 64 59.68 64 59 64 C57.5480957 62.54443359 57.5480957 62.54443359 55.86328125 60.5234375 C52.09801607 56.09703576 48.176502 51.84981459 44.1875 47.625 C43.48826416 46.88258057 42.78902832 46.14016113 42.06860352 45.37524414 C37.49518924 40.53581708 32.83739288 35.80534089 28.09765625 31.12890625 C25.50651545 28.49916373 23.10975885 25.73394345 20.7109375 22.9296875 C18.88200137 20.86691479 16.96419542 18.9340928 15 17 C9.58790527 11.66132516 4.7384408 5.93768335 0 0 Z " fill="#29B2FE" transform="translate(1,32)"/>
<path d="M0 0 C3.3287521 1.10958403 4.01489699 1.92544504 6.1875 4.5625 C8.68326212 7.51012642 11.24219097 10.29574066 14 13 C17.27202128 16.2215855 20.29316055 19.58592145 23.28515625 23.06640625 C24.96004299 24.95494597 26.69947587 26.73155648 28.5 28.5 C31.03023806 31.00161546 33.48612241 33.54998413 35.875 36.1875 C36.44992188 36.82042969 37.02484375 37.45335937 37.6171875 38.10546875 C39.14719734 40.20166868 39.72920337 41.42349269 40 44 C38.80497742 45.80975342 38.80497742 45.80975342 36.93237305 47.66699219 C36.23802658 48.36741638 35.54368011 49.06784058 34.82829285 49.78948975 C34.06382339 50.53442688 33.29935394 51.27936401 32.51171875 52.046875 C31.35141899 53.20367767 31.35141899 53.20367767 30.16767883 54.3838501 C28.52818842 56.01358588 26.88267116 57.63727747 25.23168945 59.25537109 C22.69616578 61.74150303 20.17978441 64.24579855 17.66601562 66.75390625 C16.07400675 68.33182974 14.48094276 69.90868956 12.88671875 71.484375 C11.74912361 72.61392609 11.74912361 72.61392609 10.58854675 73.76629639 C9.8847438 74.45411194 9.18094086 75.14192749 8.45581055 75.85058594 C7.83546432 76.46029236 7.2151181 77.06999878 6.57597351 77.69818115 C5 79 5 79 3 79 C3 79.66 3 80.32 3 81 C1.6015625 82.37719727 1.6015625 82.37719727 -0.375 84.00390625 C-5.52433397 88.38242943 -10.24681932 93.13686053 -15 97.9375 C-15.87011719 98.81212891 -16.74023438 99.68675781 -17.63671875 100.58789062 C-19.76013549 102.72297449 -21.88116378 104.86037205 -24 107 C-24.66 106.67 -25.32 106.34 -26 106 C-25.80889648 105.24082275 -25.61779297 104.48164551 -25.42089844 103.69946289 C-22.18572887 90.83567343 -18.95191627 77.97470974 -15.95507812 65.05297852 C-15.08959635 61.35370493 -14.17509582 57.66827087 -13.24609375 53.984375 C-10.52940291 43.16886384 -7.89410941 32.33343198 -5.25 21.5 C-4.73832083 19.40493825 -4.22660234 17.3098861 -3.71484375 15.21484375 C-2.47611015 10.14333952 -1.23790519 5.0717065 0 0 Z " fill="#29B2FE" transform="translate(109,160)"/>
<path d="M0 0 C48.18 0 96.36 0 146 0 C143.12553268 2.87446732 139.66326886 3.35698308 135.83203125 4.36328125 C134.98588257 4.5914856 134.13973389 4.81968994 133.26794434 5.05480957 C131.42279903 5.55166602 129.57682096 6.04543756 127.73013306 6.53652954 C123.76626426 7.5907557 119.80640381 8.65967298 115.84623718 9.72770691 C113.76189851 10.28967662 111.67735045 10.85087018 109.59260559 11.41133118 C99.15702331 14.21856705 88.73989151 17.09117604 78.32595825 19.97753906 C75.32891342 20.80795221 72.33137862 21.63657606 69.33374023 22.46484375 C61.10141761 24.74128021 52.87182056 27.02500494 44.66015625 29.375 C43.48348389 29.71039795 42.30681152 30.0457959 41.09448242 30.39135742 C39.03954405 30.97930635 36.98614192 31.57266979 34.93481445 32.1730957 C34.06687256 32.42148193 33.19893066 32.66986816 32.3046875 32.92578125 C31.58265137 33.13630127 30.86061523 33.34682129 30.11669922 33.5637207 C27.6186521 34.07860077 25.54222025 34.27788927 23 34 C21.54956055 32.70581055 21.54956055 32.70581055 20.38671875 30.88671875 C19.947229 30.22067627 19.50773926 29.55463379 19.05493164 28.8684082 C18.6036792 28.1487085 18.15242676 27.42900879 17.6875 26.6875 C16.72255448 25.21535836 15.7564017 23.74400736 14.7890625 22.2734375 C14.31758789 21.54608398 13.84611328 20.81873047 13.36035156 20.06933594 C11.50859747 17.25248962 9.55281981 14.53334918 7.5625 11.8125 C6.96566406 10.99394531 6.36882812 10.17539063 5.75390625 9.33203125 C4.47269952 7.62851139 3.13933202 5.96387071 1.77734375 4.32421875 C0 2 0 2 0 0 Z " fill="#2BB2FE" transform="translate(212,1)"/>
<path d="M0 0 C1.39111328 1.5378418 1.39111328 1.5378418 2.8203125 3.69921875 C3.35180908 4.49078369 3.88330566 5.28234863 4.4309082 6.09790039 C5.26948364 7.3797522 5.26948364 7.3797522 6.125 8.6875 C7.2872733 10.43001251 8.45003626 12.17219851 9.61328125 13.9140625 C10.47107178 15.20812012 10.47107178 15.20812012 11.34619141 16.52832031 C14.30805972 20.95494487 17.40636129 25.28544634 20.48828125 29.62890625 C22 32 22 32 22 34 C16.63288224 33.87965583 11.26587479 33.75533447 5.89892578 33.62768555 C4.08189246 33.58498638 2.26483541 33.54328239 0.44775391 33.50268555 C-11.71920468 33.22998946 -23.85323969 32.75650387 -36 32 C-34.10694916 27.8213276 -31.24895283 25.20414928 -27.875 22.1875 C-27.28678467 21.65342529 -26.69856934 21.11935059 -26.0925293 20.5690918 C-22.42482008 17.24823948 -18.72872835 13.95964096 -14.9765625 10.734375 C-13.42731585 9.37495699 -11.90703083 7.98252119 -10.3984375 6.578125 C-9.50382812 5.74796875 -8.60921875 4.9178125 -7.6875 4.0625 C-6.86636719 3.29035156 -6.04523438 2.51820312 -5.19921875 1.72265625 C-3 0 -3 0 0 0 Z " fill="#2BB3FE" transform="translate(203,2)"/>
<path d="M0 0 C8.72828812 1.57986891 16.80214365 4.7455628 25.0625 7.875 C26.60289669 8.45344581 28.14350886 9.03131811 29.68432617 9.60864258 C33.66442693 11.10138321 37.64195056 12.60086776 41.61889648 14.10198975 C47.65091941 16.37690909 53.68780843 18.63889879 59.72384644 20.90313721 C61.77294571 21.67264598 63.8212568 22.4442188 65.86938477 23.21630859 C67.12776504 23.68978365 68.38614711 24.16325396 69.64453125 24.63671875 C71.27418823 25.25099731 71.27418823 25.25099731 72.93676758 25.87768555 C75.94026089 26.97811264 78.96025399 28.00461933 82 29 C82 29.33 82 29.66 82 30 C79.42314974 29.87816033 76.84632817 29.75577279 74.26953125 29.6328125 C73.054328 29.5748349 73.054328 29.5748349 71.8145752 29.51568604 C67.32075402 29.29950349 62.82748555 29.07547936 58.3347168 28.83837891 C57.42473434 28.7903714 56.51475189 28.74236389 55.57719421 28.69290161 C53.72798876 28.59522961 51.87879651 28.49730725 50.02961731 28.3991394 C45.0738271 28.14114697 40.12026334 27.92333659 35.16011047 27.77090454 C33.12575638 27.70516899 31.09280041 27.62328755 29.05932617 27.53466797 C26.6152783 27.43051684 24.16977783 27.35525366 21.72387695 27.31298828 C14.02321955 26.92878197 14.02321955 26.92878197 11.28588867 24.4440918 C9.92301664 22.35463069 8.95567525 20.30283192 8 18 C7.2563807 16.51048085 6.51028077 15.02219756 5.76171875 13.53515625 C5.06503594 12.04672923 4.37362212 10.5558246 3.6875 9.0625 C3.32849609 8.29615234 2.96949219 7.52980469 2.59960938 6.74023438 C0 1.14983631 0 1.14983631 0 0 Z " fill="#29B2FE" transform="translate(63,2)"/>
<path d="M0 0 C-1.4264578 3.2586636 -3.16704162 5.4024854 -5.6953125 7.890625 C-6.76845703 8.95410156 -6.76845703 8.95410156 -7.86328125 10.0390625 C-8.60964844 10.76867187 -9.35601562 11.49828125 -10.125 12.25 C-10.87910156 12.99507812 -11.63320312 13.74015625 -12.41015625 14.5078125 C-14.26900772 16.3431342 -16.13237005 18.1736191 -18 20 C-18.66 19.34 -19.32 18.68 -20 18 C-17.04974274 14.99196428 -14.08850331 11.9949821 -11.125 9 C-10.28324219 8.14148438 -9.44148438 7.28296875 -8.57421875 6.3984375 C-7.76855469 5.58632812 -6.96289062 4.77421875 -6.1328125 3.9375 C-5.38918457 3.18339844 -4.64555664 2.42929688 -3.87939453 1.65234375 C-2 0 -2 0 0 0 Z " fill="#4BBEFD" transform="translate(132,219)"/>
<path d="M0 0 C0.66 0.33 1.32 0.66 2 1 C-1.96 4.96 -5.92 8.92 -10 13 C-6.37 13.33 -2.74 13.66 1 14 C1 14.33 1 14.66 1 15 C-6.92 15.495 -6.92 15.495 -15 16 C-13.32088639 12.64177277 -12.56604972 11.33408406 -9.9609375 8.984375 C-9.38085938 8.45585937 -8.80078125 7.92734375 -8.203125 7.3828125 C-7.59984375 6.84398437 -6.9965625 6.30515625 -6.375 5.75 C-5.76398438 5.19570313 -5.15296875 4.64140625 -4.5234375 4.0703125 C-3.02043435 2.7082159 -1.5108532 1.35338399 0 0 Z " fill="#1CAEFE" transform="translate(182,18)"/>
<path d="M0 0 C4.84688192 0.78175515 9.3766367 2.39844278 14 4 C14 4.33 14 4.66 14 5 C7.07 4.67 0.14 4.34 -7 4 C-7 3.67 -7 3.34 -7 3 C-4.03 3 -1.06 3 2 3 C2 2.34 2 1.68 2 1 C1.34 0.67 0.68 0.34 0 0 Z " fill="#3FB9FD" transform="translate(131,27)"/>
<path d="M0 0 C0.66 0 1.32 0 2 0 C0.51095825 3.89608498 -1.24378713 7.59097018 -3.125 11.3125 C-3.66382812 12.38113281 -4.20265625 13.44976562 -4.7578125 14.55078125 C-5.37269531 15.76314453 -5.37269531 15.76314453 -6 17 C-6.71484375 15.421875 -6.71484375 15.421875 -7 13 C-5.94290501 10.61505544 -4.8682111 8.48765933 -3.5625 6.25 C-3.22412109 5.64800781 -2.88574219 5.04601562 -2.53710938 4.42578125 C-1.70231735 2.94431935 -0.85258506 1.47129392 0 0 Z " fill="#4DBEFC" transform="translate(109,117)"/>
<path d="M0 0 C-1.55500981 3.81684226 -4.03595495 6.19195732 -7 9 C-7.66 8.67 -8.32 8.34 -9 8 C-4.67567568 0 -4.67567568 0 0 0 Z " fill="#48BDFD" transform="translate(92,258)"/>
<path d="M0 0 C-1.5830577 4.2742558 -4.50568404 6.26531794 -8 9 C-8 6 -8 6 -6.7578125 4.39453125 C-5.94957031 3.61142578 -5.94957031 3.61142578 -5.125 2.8125 C-4.59132813 2.28269531 -4.05765625 1.75289062 -3.5078125 1.20703125 C-2 0 -2 0 0 0 Z " fill="#66C6FC" transform="translate(121,230)"/>
<path d="M0 0 C1.65 0 3.3 0 5 0 C5.0825 0.5775 5.165 1.155 5.25 1.75 C6.20531013 4.6159304 7.78469173 5.9990764 10 8 C9.67 8.66 9.34 9.32 9 10 C7.49702124 8.52386015 5.99768715 7.04400843 4.5 5.5625 C3.6646875 4.73878906 2.829375 3.91507813 1.96875 3.06640625 C0 1 0 1 0 0 Z " fill="#19ADFF" transform="translate(1,32)"/>
<path d="M0 0 C0.99 0.33 1.98 0.66 3 1 C0.69 3.31 -1.62 5.62 -4 8 C-4.66 7.34 -5.32 6.68 -6 6 C-4.02 4.02 -2.04 2.04 0 0 Z " fill="#56C1FC" transform="translate(173,177)"/>
<path d="M0 0 C0.99 0.33 1.98 0.66 3 1 C3.6875 3.0625 3.6875 3.0625 4 5 C1.69 5 -0.62 5 -3 5 C-2.505 4.54625 -2.01 4.0925 -1.5 3.625 C0.22609337 2.12364481 0.22609337 2.12364481 0 0 Z " fill="#5BC3FC" transform="translate(221,31)"/>
<path d="M0 0 C0.66 0 1.32 0 2 0 C0.60667426 3.36720387 -0.9789286 4.9859524 -4 7 C-4 6.01 -4 5.02 -4 4 C-2.68 3.34 -1.36 2.68 0 2 C0 1.34 0 0.68 0 0 Z " fill="#4BBEFC" transform="translate(181,169)"/>
</svg>
